<svg xmlns="http://www.w3.org/2000/svg" enable-background="new 0 0 1024 1024" viewBox="0 0 1024 1024" id="securecollaboration">
  <g fill="#000000" class="color000000 svgShape">
    <rect width="32" height="30" x="192" y="193" fill="#000000" class="color000000 svgShape"></rect>
    <rect width="32" height="30" x="800" y="801" fill="#000000" class="color000000 svgShape"></rect>
    <path d="M688,353c-49.68,0-98.02-14.19-139.81-41.05c-7.47-4.79-14.8-10.05-21.78-15.64l-5.04-4.03c-0.02-0.02-0.05-0.04-0.07-0.05
		c-0.15-0.12-0.31-0.24-0.47-0.35c-0.13-0.09-0.26-0.19-0.39-0.28c-0.15-0.1-0.3-0.19-0.45-0.29c-0.15-0.1-0.31-0.2-0.46-0.29
		c-0.14-0.08-0.28-0.15-0.42-0.23c-0.18-0.09-0.35-0.19-0.53-0.28c-0.03-0.01-0.05-0.03-0.08-0.04c-0.11-0.05-0.23-0.1-0.34-0.15
		c-0.18-0.08-0.36-0.17-0.55-0.24c-0.15-0.06-0.3-0.11-0.46-0.17c-0.18-0.06-0.35-0.13-0.53-0.19c-0.17-0.05-0.33-0.1-0.5-0.15
		c-0.17-0.05-0.34-0.1-0.5-0.14c-0.18-0.04-0.35-0.08-0.53-0.12c-0.16-0.03-0.33-0.07-0.49-0.1c-0.18-0.03-0.36-0.06-0.54-0.08
		c-0.16-0.02-0.33-0.05-0.49-0.06c-0.18-0.02-0.36-0.03-0.54-0.04c-0.17-0.01-0.34-0.02-0.5-0.03c-0.17-0.01-0.35,0-0.52,0
		c-0.17,0-0.35,0-0.52,0c-0.17,0.01-0.34,0.02-0.5,0.03c-0.18,0.01-0.36,0.02-0.54,0.04c-0.16,0.02-0.33,0.04-0.49,0.06
		c-0.18,0.03-0.36,0.05-0.54,0.08c-0.16,0.03-0.33,0.06-0.49,0.1c-0.18,0.04-0.35,0.07-0.53,0.12c-0.17,0.04-0.33,0.09-0.5,0.14
		c-0.17,0.05-0.33,0.09-0.5,0.15c-0.18,0.06-0.35,0.12-0.53,0.19c-0.15,0.06-0.31,0.11-0.46,0.17c-0.19,0.07-0.37,0.16-0.55,0.24
		c-0.11,0.05-0.23,0.09-0.34,0.15c-0.03,0.01-0.05,0.03-0.08,0.04c-0.18,0.09-0.35,0.18-0.53,0.28c-0.14,0.07-0.28,0.15-0.41,0.22
		c-0.16,0.09-0.31,0.19-0.46,0.29c-0.15,0.09-0.3,0.19-0.45,0.28c-0.13,0.09-0.26,0.19-0.39,0.28c-0.16,0.12-0.32,0.23-0.47,0.35
		c-0.02,0.02-0.05,0.03-0.07,0.05l-7.43,5.93c-4.24,3.3-8.48,6.41-12.63,9.25c-8.17,5.62-16.78,10.84-25.58,15.5
		c-11.38,6.02-23.27,11.22-35.37,15.46c-6.8,2.39-13.88,4.54-21.02,6.39C379.51,350.24,357.78,353,336,353c-8.28,0-15,6.72-15,15
		v144v0.15c0,17.47,2.25,34.86,6.67,51.65c3.66,13.98,8.86,27.63,15.44,40.57c5.08,9.99,11.01,19.59,17.62,28.53
		c9.39,12.73,20.26,24.36,32.31,34.55c10.46,8.85,21.89,16.68,33.97,23.28l77.81,42.44c0.07,0.04,0.15,0.07,0.22,0.11
		c0.13,0.07,0.27,0.14,0.41,0.21c0.16,0.08,0.32,0.15,0.48,0.22c0.14,0.06,0.27,0.12,0.41,0.18c0.17,0.07,0.33,0.13,0.5,0.19
		c0.14,0.05,0.27,0.1,0.41,0.15c0.17,0.06,0.35,0.11,0.52,0.16c0.14,0.04,0.27,0.08,0.41,0.12c0.18,0.05,0.36,0.09,0.55,0.13
		c0.13,0.03,0.26,0.06,0.39,0.09c0.19,0.04,0.39,0.07,0.58,0.1c0.12,0.02,0.25,0.04,0.37,0.06c0.22,0.03,0.43,0.05,0.65,0.06
		c0.1,0.01,0.21,0.02,0.31,0.03c0.32,0.02,0.64,0.03,0.96,0.03c0,0,0,0,0,0s0,0,0,0c0.32,0,0.64-0.01,0.96-0.03
		c0.11-0.01,0.21-0.02,0.32-0.03c0.21-0.02,0.43-0.04,0.64-0.06c0.13-0.02,0.25-0.04,0.38-0.06c0.19-0.03,0.38-0.06,0.57-0.09
		c0.14-0.03,0.27-0.06,0.41-0.09c0.18-0.04,0.35-0.08,0.53-0.13c0.14-0.04,0.28-0.08,0.43-0.12c0.17-0.05,0.34-0.1,0.5-0.15
		c0.14-0.05,0.29-0.1,0.43-0.15c0.16-0.06,0.32-0.12,0.48-0.19c0.14-0.06,0.29-0.12,0.43-0.18c0.16-0.07,0.32-0.14,0.47-0.22
		c0.14-0.07,0.28-0.14,0.41-0.21c0.07-0.04,0.15-0.07,0.22-0.11l77.81-42.44c26.25-14.31,48.55-33.77,66.29-57.83
		c15.36-20.84,26.48-44.09,33.04-69.08c4.43-16.82,6.67-34.21,6.67-51.67V512V368C703,359.72,696.28,353,688,353z M351,382.61
		c19.26-1,38.4-3.94,57.09-8.76c7.97-2.06,15.87-4.46,23.46-7.13c13.49-4.73,26.77-10.53,39.47-17.25
		c8.91-4.72,17.64-9.95,25.98-15.55V497H351V382.61z M667.31,556.19c-5.6,21.31-15.08,41.13-28.17,58.91
		c-15.12,20.51-34.14,37.09-56.51,49.29L527,694.73V527h145.36C671.52,536.86,669.83,546.63,667.31,556.19z" fill="#000000" class="color000000 svgShape"></path>
    <path d="M911,512c0-41.65-32.4-75.85-73.32-78.77c-14.39-59.79-44.93-114.24-88.8-158.11c-43.87-43.87-98.32-74.4-158.11-88.8
		C587.85,145.4,553.65,113,512,113c-41.65,0-75.85,32.4-78.77,73.32c-59.79,14.39-114.24,44.93-158.11,88.8
		s-74.41,98.32-88.8,158.11C145.4,436.15,113,470.35,113,512s32.4,75.85,73.32,78.77c14.39,59.79,44.93,114.24,88.8,158.11
		c43.87,43.87,98.32,74.41,158.11,88.8C436.15,878.6,470.35,911,512,911c41.65,0,75.85-32.4,78.77-73.32
		c59.79-14.39,114.24-44.93,158.11-88.8s74.41-98.32,88.8-158.11C878.6,587.85,911,553.65,911,512z M512,143c27.02,0,49,21.98,49,49
		c0,1.66-0.08,3.29-0.24,4.87C558.29,222.03,537.33,241,512,241c-2.37,0-4.71-0.17-7-0.49c-22.1-3.12-39.53-20.84-41.77-43.67
		c-0.16-1.55-0.23-3.18-0.23-4.84C463,164.98,484.98,143,512,143z M143,512c0-27.02,21.98-49,49-49c1.66,0,3.29,0.08,4.87,0.24
		C222.03,465.71,241,486.67,241,512c0,1.58-0.07,3.15-0.22,4.69c-0.08,0.88-0.2,1.76-0.32,2.62c-3.25,21.95-20.9,39.22-43.62,41.45
		c-1.55,0.16-3.18,0.23-4.84,0.23C164.98,561,143,539.02,143,512z M512,881c-27.02,0-49-21.98-49-49c0-1.59,0.08-3.24,0.24-4.87
		C465.72,801.97,486.68,783,512,783c0.79,0,1.58,0.02,2.36,0.06c24.25,1.14,43.99,19.69,46.4,44.06c0.16,1.66,0.24,3.3,0.24,4.89
		C561,859.02,539.02,881,512,881z M587.18,807.67c-0.08-0.25-0.17-0.5-0.26-0.76c-0.09-0.28-0.19-0.56-0.29-0.84
		c-0.3-0.87-0.62-1.74-0.95-2.59c-0.06-0.15-0.11-0.31-0.17-0.46c-0.39-0.99-0.8-1.97-1.23-2.94c-0.11-0.25-0.23-0.5-0.34-0.75
		c-0.35-0.77-0.71-1.54-1.09-2.29c-0.12-0.24-0.24-0.49-0.36-0.73c-0.48-0.95-0.98-1.88-1.49-2.81c-0.09-0.16-0.19-0.32-0.28-0.48
		c-0.44-0.78-0.9-1.55-1.37-2.32c-0.16-0.26-0.32-0.52-0.48-0.77c-0.52-0.82-1.05-1.63-1.59-2.43c-0.06-0.09-0.12-0.18-0.18-0.27
		c-0.6-0.88-1.23-1.74-1.87-2.6c-0.18-0.23-0.36-0.47-0.53-0.7c-0.52-0.68-1.05-1.35-1.59-2.01c-0.16-0.2-0.32-0.4-0.49-0.59
		c-0.69-0.82-1.39-1.63-2.11-2.42c-0.15-0.17-0.31-0.33-0.47-0.5c-0.6-0.64-1.2-1.28-1.82-1.91c-0.21-0.21-0.42-0.43-0.64-0.64
		c-0.77-0.77-1.56-1.52-2.36-2.26C550.63,760.32,531.74,753,512,753s-38.63,7.32-53.21,20.6c-0.81,0.74-1.59,1.49-2.36,2.26
		c-0.21,0.21-0.43,0.43-0.64,0.64c-0.62,0.63-1.23,1.26-1.83,1.91c-0.15,0.17-0.31,0.33-0.46,0.5c-0.72,0.79-1.42,1.6-2.11,2.42
		c-0.16,0.19-0.32,0.39-0.48,0.58c-0.55,0.67-1.08,1.34-1.61,2.02c-0.17,0.23-0.35,0.45-0.52,0.68c-0.65,0.86-1.28,1.73-1.89,2.61
		c-0.05,0.07-0.09,0.14-0.14,0.21c-0.56,0.83-1.11,1.66-1.64,2.51c-0.15,0.24-0.3,0.48-0.45,0.72c-0.49,0.8-0.97,1.61-1.44,2.43
		c-0.07,0.12-0.14,0.25-0.21,0.37c-0.53,0.95-1.04,1.91-1.53,2.88c-0.1,0.2-0.2,0.4-0.3,0.61c-0.4,0.82-0.8,1.64-1.17,2.47
		c-0.09,0.2-0.18,0.4-0.27,0.6c-0.45,1.01-0.88,2.03-1.28,3.06c-0.03,0.07-0.05,0.14-0.08,0.21c-0.37,0.95-0.72,1.92-1.06,2.89
		c-0.07,0.22-0.15,0.43-0.22,0.65c-0.09,0.28-0.2,0.56-0.29,0.84C328.21,780.25,243.75,695.8,216.33,587.18
		c0.25-0.08,0.49-0.17,0.74-0.25c0.29-0.1,0.58-0.2,0.87-0.3c0.86-0.3,1.71-0.61,2.56-0.94c0.16-0.06,0.33-0.12,0.49-0.18
		c0.99-0.39,1.96-0.8,2.93-1.23c0.26-0.11,0.51-0.23,0.76-0.35c0.77-0.35,1.53-0.71,2.28-1.08c0.25-0.12,0.49-0.24,0.74-0.36
		c0.95-0.48,1.88-0.97,2.81-1.49c0.16-0.09,0.32-0.19,0.48-0.28c0.78-0.44,1.56-0.9,2.32-1.37c0.26-0.16,0.51-0.32,0.77-0.48
		c0.82-0.52,1.64-1.05,2.44-1.6c0.09-0.06,0.17-0.11,0.26-0.17c0.88-0.61,1.74-1.24,2.6-1.88c0.23-0.17,0.46-0.35,0.69-0.53
		c0.68-0.52,1.35-1.06,2.02-1.6c0.2-0.16,0.39-0.32,0.59-0.48c0.82-0.69,1.63-1.39,2.42-2.11c0.17-0.15,0.33-0.31,0.5-0.46
		c0.65-0.6,1.28-1.2,1.91-1.82c0.21-0.21,0.43-0.42,0.64-0.64c0.76-0.77,1.52-1.56,2.26-2.36C263.68,550.64,271,531.74,271,512
		c0-3.7-0.26-7.37-0.76-10.99c-2.19-15.68-9.05-30.38-19.84-42.22c-0.01-0.01-0.02-0.02-0.03-0.04c-0.72-0.79-1.46-1.56-2.21-2.32
		c-0.22-0.22-0.44-0.44-0.66-0.66c-0.62-0.61-1.25-1.21-1.88-1.8c-0.17-0.16-0.35-0.33-0.52-0.49c-0.79-0.72-1.59-1.41-2.4-2.1
		c-0.21-0.17-0.41-0.34-0.62-0.51c-0.65-0.53-1.31-1.05-1.97-1.57c-0.24-0.19-0.48-0.37-0.73-0.56c-0.85-0.64-1.7-1.26-2.57-1.86
		c-0.11-0.08-0.23-0.15-0.34-0.23c-0.77-0.53-1.55-1.04-2.34-1.53c-0.28-0.17-0.55-0.35-0.83-0.52c-0.73-0.45-1.46-0.88-2.2-1.3
		c-0.2-0.11-0.4-0.23-0.6-0.34c-0.9-0.5-1.82-0.99-2.74-1.46c-0.28-0.14-0.57-0.28-0.85-0.42c-0.7-0.34-1.41-0.68-2.11-1
		c-0.3-0.14-0.6-0.28-0.9-0.41c-0.94-0.41-1.88-0.81-2.83-1.19c-0.24-0.09-0.47-0.18-0.71-0.27c-0.76-0.29-1.52-0.57-2.29-0.84
		c-0.35-0.12-0.69-0.24-1.04-0.35c-0.22-0.07-0.44-0.15-0.66-0.23C243.75,328.2,328.2,243.75,436.82,216.33
		c0.08,0.25,0.17,0.5,0.25,0.75c0.09,0.28,0.19,0.57,0.29,0.85c0.3,0.86,0.61,1.72,0.94,2.58c0.06,0.16,0.12,0.32,0.18,0.47
		c0.39,0.99,0.8,1.97,1.23,2.94c0.11,0.25,0.23,0.5,0.34,0.75c0.35,0.77,0.71,1.53,1.08,2.29c0.12,0.24,0.24,0.49,0.36,0.73
		c0.48,0.95,0.97,1.88,1.49,2.81c0.09,0.16,0.19,0.32,0.28,0.48c0.44,0.78,0.9,1.55,1.37,2.32c0.16,0.26,0.32,0.52,0.48,0.78
		c0.52,0.82,1.04,1.63,1.59,2.43c0.06,0.09,0.12,0.18,0.18,0.28c0.6,0.88,1.23,1.74,1.87,2.59c0.18,0.24,0.36,0.47,0.54,0.7
		c0.52,0.67,1.05,1.34,1.59,2c0.16,0.2,0.32,0.4,0.49,0.6c0.68,0.82,1.39,1.62,2.1,2.41c0.15,0.17,0.31,0.34,0.47,0.5
		c0.59,0.64,1.2,1.28,1.82,1.9c0.21,0.22,0.43,0.43,0.64,0.64c0.77,0.76,1.56,1.52,2.36,2.26C473.36,263.68,492.26,271,512,271
		c3.7,0,7.37-0.26,10.99-0.76c15.68-2.19,30.38-9.05,42.22-19.84c0.81-0.74,1.59-1.49,2.36-2.26c0.21-0.21,0.43-0.43,0.64-0.64
		c0.62-0.63,1.23-1.26,1.83-1.91c0.15-0.17,0.31-0.33,0.46-0.5c0.72-0.79,1.42-1.6,2.11-2.42c0.17-0.2,0.33-0.4,0.49-0.6
		c0.54-0.66,1.07-1.32,1.58-2c0.18-0.24,0.37-0.47,0.54-0.71c0.64-0.85,1.26-1.71,1.86-2.58c0.07-0.11,0.14-0.22,0.22-0.33
		c0.53-0.78,1.04-1.57,1.55-2.36c0.17-0.28,0.34-0.55,0.51-0.83c0.45-0.73,0.88-1.46,1.3-2.2c0.11-0.2,0.23-0.4,0.35-0.6
		c0.5-0.9,0.99-1.81,1.45-2.73c0.15-0.29,0.29-0.58,0.43-0.87c0.34-0.69,0.67-1.39,0.99-2.09c0.14-0.31,0.28-0.61,0.42-0.92
		c0.41-0.93,0.81-1.87,1.18-2.81c0.1-0.25,0.19-0.5,0.28-0.75c0.29-0.75,0.56-1.5,0.83-2.25c0.12-0.35,0.24-0.71,0.36-1.06
		c0.07-0.22,0.15-0.43,0.22-0.65c108.62,27.43,193.07,111.88,220.49,220.49c-0.25,0.08-0.5,0.17-0.75,0.26
		c-0.29,0.1-0.57,0.19-0.85,0.29c-0.86,0.3-1.72,0.61-2.58,0.94c-0.16,0.06-0.32,0.12-0.47,0.18c-0.99,0.39-1.97,0.8-2.94,1.23
		c-0.25,0.11-0.51,0.23-0.76,0.34c-0.77,0.35-1.53,0.71-2.28,1.08c-0.25,0.12-0.49,0.24-0.74,0.36c-0.94,0.48-1.88,0.97-2.81,1.49
		c-0.16,0.09-0.33,0.19-0.49,0.28c-0.78,0.44-1.55,0.9-2.31,1.37c-0.26,0.16-0.52,0.32-0.78,0.48c-0.82,0.52-1.63,1.04-2.43,1.59
		c-0.09,0.06-0.18,0.12-0.27,0.18c-0.88,0.6-1.74,1.23-2.59,1.87c-0.24,0.18-0.47,0.36-0.7,0.54c-0.68,0.52-1.34,1.05-2,1.59
		c-0.2,0.16-0.4,0.32-0.6,0.49c-0.82,0.69-1.62,1.39-2.42,2.11c-0.17,0.15-0.33,0.31-0.5,0.47c-0.64,0.6-1.28,1.2-1.91,1.82
		c-0.21,0.21-0.43,0.42-0.64,0.64c-0.77,0.77-1.52,1.56-2.26,2.36C760.32,473.37,753,492.26,753,512s7.32,38.63,20.6,53.21
		c0.74,0.81,1.49,1.59,2.26,2.36c0.21,0.21,0.43,0.43,0.64,0.64c0.63,0.62,1.26,1.23,1.91,1.83c0.17,0.15,0.33,0.31,0.5,0.46
		c0.79,0.72,1.6,1.42,2.42,2.11c0.19,0.16,0.39,0.32,0.58,0.48c0.67,0.55,1.34,1.08,2.03,1.61c0.23,0.17,0.45,0.35,0.68,0.52
		c0.86,0.65,1.73,1.28,2.62,1.89c0.07,0.05,0.14,0.09,0.2,0.14c0.83,0.57,1.67,1.11,2.51,1.65c0.24,0.15,0.48,0.3,0.72,0.44
		c0.81,0.5,1.62,0.98,2.44,1.44c0.12,0.07,0.24,0.14,0.36,0.21c0.95,0.53,1.91,1.04,2.88,1.53c0.2,0.1,0.4,0.2,0.6,0.3
		c0.82,0.41,1.65,0.8,2.48,1.18c0.2,0.09,0.39,0.18,0.59,0.27c1.01,0.45,2.03,0.88,3.06,1.28c0.07,0.03,0.13,0.05,0.2,0.08
		c0.96,0.37,1.93,0.73,2.9,1.06c0.21,0.07,0.42,0.15,0.64,0.22c0.28,0.1,0.56,0.2,0.85,0.29
		C780.25,695.79,695.79,780.25,587.18,807.67z M832,561c-1.59,0-3.24-0.08-4.87-0.24C801.97,558.28,783,537.32,783,512
		c0-0.79,0.02-1.58,0.06-2.36c1.14-24.25,19.69-43.99,44.06-46.4c1.66-0.16,3.3-0.24,4.89-0.24c27.02,0,49,21.98,49,49
		S859.02,561,832,561z" fill="#000000" class="color000000 svgShape"></path>
  </g>
</svg>
